<svg xmlns="http://www.w3.org/2000/svg" width="360" height="220" viewBox="0 0 360 220" role="img" aria-label="Logo M2S formation">
  <rect width="360" height="220" rx="24" fill="#ffffff"/>
  <g fill="none" stroke="#0f7aa7" stroke-linecap="round" stroke-linejoin="round">
    <path d="M48 146V62l46 46 38-46v84" stroke-width="14"/>
    <path d="M156 88c8-20 21-32 40-32 23 0 38 14 38 35 0 16-8 29-25 44l-41 38h59" stroke-width="14"/>
    <path d="M294 56c0 12-10 22-22 22s-22-10-22-22 10-22 22-22 22 10 22 22Z" fill="#ff8b38" stroke="#ff8b38"/>
    <path d="M288 82c-10-9-21-13-34-13-26 0-44 17-44 39 0 15 10 28 25 33l18 7c13 5 20 11 20 22 0 15-13 26-31 26-19 0-33-9-43-26" stroke-width="14"/>
  </g>
  <g font-family="Trebuchet MS, Arial, sans-serif" font-weight="500">
    <text x="48" y="188" font-size="34" fill="#0f7aa7" letter-spacing="1">form</text>
    <circle cx="163" cy="178" r="8" fill="#ff8b38"/>
    <text x="176" y="188" font-size="34" fill="#0f7aa7" letter-spacing="1">tion</text>
  </g>
</svg>
